<?xml version="1.0" encoding="UTF-8"?>
<svg version="1.1" xmlns="http://www.w3.org/2000/svg" width="2000" height="600">
<path d="M0 0 C660 0 1320 0 2000 0 C2000 198 2000 396 2000 600 C1340 600 680 600 0 600 C0 402 0 204 0 0 Z " fill="#F86854" transform="translate(0,0)"/>
<path d="M0 0 C3.49740001 2.84612464 6.78467297 5.83991914 10 9 C10.62648438 9.61359375 11.25296875 10.2271875 11.8984375 10.859375 C25.43029291 25.1872219 31.53904042 45.22220958 31.20703125 64.61328125 C30.5642393 82.45765892 24.25638883 98.18004435 13 112 C12.53207031 112.63035156 12.06414062 113.26070312 11.58203125 113.91015625 C3.86598731 123.84371428 -7.6883323 130.05574611 -19 135 C-20.68996094 135.76376953 -20.68996094 135.76376953 -22.4140625 136.54296875 C-39.06481486 143.1331224 -59.69289701 141.92307604 -76.16308594 135.10449219 C-97.84319948 125.3931077 -112.13225047 109.41509294 -121.02734375 87.46484375 C-121.78600242 85.3247469 -122.42168535 83.1951521 -123 81 C-123.20367187 80.29488281 -123.40734375 79.58976562 -123.6171875 78.86328125 C-128.47481442 59.26641648 -123.99275593 38.92019685 -114.06445312 21.73486328 C-111.44186359 17.46052354 -108.38631104 13.68510319 -105 10 C-104.36320312 9.29488281 -103.72640625 8.58976562 -103.0703125 7.86328125 C-92.73393179 -3.03350565 -79.51408775 -10.3411899 -65 -14 C-64.32066406 -14.20496094 -63.64132813 -14.40992188 -62.94140625 -14.62109375 C-41.67234706 -20.4509871 -17.23774832 -12.61237011 0 0 Z " fill="#FEFEFE" transform="translate(313,220)"/>
<path d="M0 0 C0.84626953 -0.00322266 1.69253906 -0.00644531 2.56445312 -0.00976562 C13.87843973 0.08618954 24.16761795 3.61274524 32.625 11.375 C44.90730769 24.80877403 49.11463911 40.74110117 49.125 58.4375 C49.13724609 59.51515625 49.14949219 60.5928125 49.16210938 61.703125 C49.19257437 78.56042458 44.94732771 93.94813863 32.9375 106.3125 C23.1093638 115.84168149 12.58578092 118.73966005 -0.75 118.875 C-1.71180176 118.88974365 -2.67360352 118.9044873 -3.66455078 118.91967773 C-12.99342759 118.78608809 -20.57857422 115.88193314 -28.0625 110.3125 C-28.866875 109.77625 -29.67125 109.24 -30.5 108.6875 C-42.20025793 97.8433585 -48.72551869 80.80990489 -49.3984375 65.0859375 C-49.72971825 45.34486322 -46.46758046 27.22737189 -32.29296875 12.3125 C-22.73984827 3.74647954 -12.72069252 -0.24331853 0 0 Z " fill="#FEFCFC" transform="translate(1674.0625,249.6875)"/>
<path d="M0 0 C12.24914933 9.21621299 18.79249976 23.02940581 21.4453125 37.83984375 C21.85861839 42.4743894 21.92284146 47.0638595 21.8828125 51.71484375 C21.87523926 52.94847656 21.86766602 54.18210937 21.85986328 55.453125 C21.70085561 64.22756291 20.96927522 71.71606677 17.4453125 79.83984375 C17.02121094 80.87625 16.59710937 81.91265625 16.16015625 82.98046875 C10.80707887 94.84968767 2.57367994 103.5792021 -9.47338867 108.64697266 C-20.3684716 112.74129543 -35.44944512 113.01071295 -46.3671875 108.90234375 C-60.9242958 101.40130104 -69.7113096 87.80181765 -74.59765625 72.59375 C-79.31423756 53.79385548 -77.52229603 33.68453746 -68.2421875 16.5859375 C-61.43304717 5.50532257 -52.30510161 -3.35398198 -39.4296875 -6.71484375 C-25.51102743 -8.87072316 -11.98819606 -7.68522287 0 0 Z " fill="#FEFCFC" transform="translate(785.5546875,257.16015625)"/>
<path d="M0 0 C64.70588235 0 64.70588235 0 73.9375 8.859375 C81.26883029 16.74055507 82.52733791 22.72138504 82.28515625 33.3984375 C81.70606441 40.71244682 79.25608813 45.74391187 74 51 C70.76374064 53.29532051 68.07468217 55 64 55 C64 55.66 64 56.32 64 57 C64.99 57.04125 65.98 57.0825 67 57.125 C72.93921199 58.0128822 77.13768242 61.67008753 80.8046875 66.2578125 C86.64322315 74.72229241 86.97258034 82.55067582 85.64453125 92.72265625 C83.77304009 100.64823291 78.56035745 106.89257411 71.87890625 111.4453125 C69.92473413 112.47382414 68.09129 113.29004177 66 114 C65.08162354 114.3407959 64.16324707 114.6815918 63.21704102 115.03271484 C57.41957959 116.66701018 51.38013662 116.24464958 45.41015625 116.1953125 C44.25737183 116.19329834 43.1045874 116.19128418 41.91687012 116.18920898 C37.6320393 116.178786 33.34726544 116.15086355 29.0625 116.125 C19.471875 116.08375 9.88125 116.0425 0 116 C0 77.72 0 39.44 0 0 Z " fill="#FEFCFC" transform="translate(418,251)"/>
<path d="M0 0 C10.89 0 21.78 0 33 0 C37.5 11.25 37.5 11.25 39.29003906 16.73486328 C39.69015198 17.95537384 40.09026489 19.1758844 40.50250244 20.43338013 C40.92361492 21.72900097 41.34465413 23.02464564 41.765625 24.3203125 C42.20802598 25.67374904 42.6507192 27.02709009 43.09368896 28.38034058 C44.24732885 31.90726045 45.39704821 35.43544575 46.54589844 38.96392822 C47.72350213 42.57830184 48.90488843 46.19143856 50.0859375 49.8046875 C52.39428589 56.86860039 54.6984854 63.93385723 57 71 C58.77369197 65.70928754 60.54404168 60.41746408 62.3125 55.125 C62.71258774 53.92815079 62.71258774 53.92815079 63.12075806 52.7071228 C66.19322883 43.50970413 69.23950966 34.30483108 72.2109375 25.07421875 C72.46395126 24.28853516 72.71696503 23.50285156 72.97764587 22.69335938 C74.19304564 18.91517532 75.4035461 15.1354864 76.60864258 11.35400391 C77.04503895 9.99249838 77.48147856 8.63100671 77.91796875 7.26953125 C78.29719482 6.07948486 78.6764209 4.88943848 79.06713867 3.66333008 C80 1 80 1 81 0 C91.89 0 102.78 0 114 0 C114 38.28 114 76.56 114 116 C106.74 116 99.48 116 92 116 C91.67 84.65 91.34 53.3 91 21 C85.54712138 38.10267394 85.54712138 38.10267394 80.25 55.25 C76.58838949 67.24094139 72.74205751 79.16908927 68.85644531 91.08886719 C66.15897002 99.37028893 63.53817203 107.66791659 61 116 C57.04 116 53.08 116 49 116 C48.40574219 114.13158447 47.81148437 112.26316895 47.19921875 110.33813477 C45.19976547 104.05180243 43.20010618 97.76553565 41.20031738 91.47931004 C39.99199328 87.68098541 38.78374308 83.88263731 37.57568359 80.08422852 C36.40719379 76.41025511 35.23850848 72.73634394 34.06967163 69.06248093 C33.60658526 67.60685265 33.14355221 66.1512074 32.68057251 64.6955452 C30.31606785 57.26167357 27.9475654 49.82915928 25.5625 42.40185547 C25.0048999 40.66475563 25.0048999 40.66475563 24.43603516 38.89256287 C23.74938128 36.7551927 23.06162838 34.61817516 22.37255859 32.48158264 C21.92130615 31.07712135 21.92130615 31.07712135 21.4609375 29.64428711 C21.20103027 28.83785263 20.94112305 28.03141815 20.67333984 27.20054626 C20.04695245 25.15344561 19.51921786 23.07687146 19 21 C18.67 52.35 18.34 83.7 18 116 C12.06 116 6.12 116 0 116 C0 77.72 0 39.44 0 0 Z " fill="#FEFAFA" transform="translate(826,251)"/>
<path d="M0 0 C12.54 0 25.08 0 38 0 C38 68.64 38 137.28 38 208 C25.46 208 12.92 208 0 208 C0 139.36 0 70.72 0 0 Z " fill="#072D49" transform="translate(135,204)"/>
<path d="M0 0 C10.18875 -0.061875 20.3775 -0.12375 30.875 -0.1875 C35.67200439 -0.22846802 35.67200439 -0.22846802 40.56591797 -0.27026367 C43.12467065 -0.27903248 45.68342754 -0.28667548 48.2421875 -0.29296875 C49.55131104 -0.30831665 50.86043457 -0.32366455 52.20922852 -0.33947754 C63.31801433 -0.34262927 72.84673199 0.91759496 81.03515625 9.01171875 C87.95312071 16.40678421 90.56651658 22.2812108 90.4375 32.3125 C90.42775146 33.15409668 90.41800293 33.99569336 90.40795898 34.86279297 C90.14148251 44.20121244 88.10993186 50.0807508 81.625 56.9375 C78.27900217 60.06780541 75.27144838 62.35713524 71 64 C73.01660494 70.29661633 75.30199913 76.43554602 77.79296875 82.55859375 C78.51239714 84.34308793 79.23179739 86.12759346 79.95117188 87.91210938 C81.07605094 90.69303979 82.20208903 93.47349668 83.32885742 96.25366211 C84.42392365 98.95832665 85.51487424 101.66462368 86.60546875 104.37109375 C87.11632271 105.62568642 87.11632271 105.62568642 87.63749695 106.90562439 C87.9481459 107.67725418 88.25879486 108.44888397 88.57885742 109.24389648 C88.85404709 109.92290512 89.12923676 110.60191376 89.4127655 111.30149841 C90 113 90 113 90 115 C82.41 115 74.82 115 67 115 C66.27554687 113.02 65.55109375 111.04 64.8046875 109 C59.91725666 95.64862449 55.02200032 82.30151436 50 69 C40.43 68.67 30.86 68.34 21 68 C21 83.51 21 99.02 21 115 C14.07 115 7.14 115 0 115 C0 77.05 0 39.1 0 0 Z " fill="#FEFCFC" transform="translate(1522,252)"/>
<path d="M0 0 C14.5096875 -0.12375 14.5096875 -0.12375 29.3125 -0.25 C32.34477783 -0.28641602 35.37705566 -0.32283203 38.5012207 -0.36035156 C40.93440037 -0.37204612 43.36758794 -0.38223612 45.80078125 -0.390625 C47.04001343 -0.41108887 48.27924561 -0.43155273 49.55603027 -0.45263672 C60.7339669 -0.45707725 69.79583799 1.79428184 77.98828125 9.6484375 C85.01526644 17.86250562 87.42190689 26.13194849 87.265625 36.74609375 C86.40127665 47.33436105 82.03999784 55.13123098 74 62 C65.77043237 67.5276576 59.25686533 69.16274662 49.41796875 69.09765625 C48.69565063 69.09664917 47.97333252 69.09564209 47.22912598 69.09460449 C44.54856768 69.08939952 41.86803213 69.07543837 39.1875 69.0625 C33.185625 69.041875 27.18375 69.02125 21 69 C21 84.18 21 99.36 21 115 C14.07 115 7.14 115 0 115 C0 77.05 0 39.1 0 0 Z " fill="#FEFDFD" transform="translate(1248,252)"/>
<path d="M0 0 C7.92 0 15.84 0 24 0 C30.44891011 6.52782268 30.44891011 6.52782268 31.71289062 9.57617188 C32.14178589 10.56121704 32.14178589 10.56121704 32.5793457 11.56616211 C32.86253662 12.22495361 33.14572754 12.88374512 33.4375 13.5625 C34.06204484 14.83709125 34.69550382 16.10735406 35.33789062 17.37304688 C36.62748861 19.93492136 37.87048235 22.51293717 39.08935547 25.10913086 C41.91102323 30.99725813 45.38334869 36.49435023 48.80447388 42.04702759 C50.90352682 45.4759719 52.94938011 48.93648269 55 52.39453125 C55.83198602 53.79494874 56.66401719 55.19533942 57.49609375 56.59570312 C57.90714355 57.28801025 58.31819336 57.98031738 58.74169922 58.69360352 C60.02626607 60.85673035 61.31195284 63.01918918 62.59765625 65.18164062 C63.4193382 66.56506415 64.24095539 67.94852615 65.0625 69.33203125 C65.44470703 69.9746138 65.82691406 70.61719635 66.22070312 71.2792511 C68.88554864 75.77109728 68.88554864 75.77109728 70 78 C70.33 52.26 70.66 26.52 71 0 C76.61 0 82.22 0 88 0 C88 38.28 88 76.56 88 116 C67 116 67 116 61.828125 110.89453125 C60.53424965 108.53866946 59.37729122 106.24015123 58.25 103.8125 C57.58075635 102.53685586 56.90297572 101.26565872 56.21728516 99.9987793 C54.79686293 97.35409665 53.41919201 94.69307086 52.06933594 92.01171875 C49.11856652 86.20890064 45.75844089 80.65209995 42.41931152 75.06723022 C40.78681812 72.32419287 39.18918091 69.56098965 37.5859375 66.80078125 C31.13218874 55.82281169 24.55183001 44.91971668 18 34 C17.67 61.06 17.34 88.12 17 116 C11.39 116 5.78 116 0 116 C0 77.72 0 39.44 0 0 Z " fill="#FEFBFA" transform="translate(1742,251)"/>
<path d="M0 0 C8.91 0 17.82 0 27 0 C31.2165601 12.51846895 35.43291972 25.03700537 39.64893627 37.55565739 C41.60706195 43.36990996 43.565272 49.18413408 45.52368164 54.99829102 C47.41719495 60.61979332 49.31047778 66.24137321 51.20360756 71.86300468 C51.9222847 73.99698023 52.64104186 76.13092883 53.35988426 78.26484871 C53.70383043 79.28588629 54.0477766 80.30692387 54.40214539 81.35890198 C54.73725286 82.35369788 55.07236032 83.34849379 55.41762257 84.37343502 C56.3704449 87.20408424 57.32136893 90.03536555 58.27206421 92.86672974 C59.3686003 96.13093947 60.47405769 99.39183555 61.58950806 102.64962769 C61.82734418 103.3491603 62.0651803 104.04869291 62.31022358 104.76942348 C62.92966394 106.59091332 63.55324311 108.41099425 64.17720032 110.23094177 C65 113 65 113 65 116 C57.74 116 50.48 116 43 116 C40.60089984 110.0022496 38.28996374 104.16350268 36.25 98.0625 C36.02957031 97.41732422 35.80914063 96.77214844 35.58203125 96.10742188 C34.63574851 93.27151242 34 91.01221832 34 88 C19.15 88 4.3 88 -11 88 C-11.66 90.97 -12.32 93.94 -13 97 C-13.47431398 98.68659859 -13.9712995 100.36730063 -14.5078125 102.03515625 C-14.77207031 102.86337891 -15.03632812 103.69160156 -15.30859375 104.54492188 C-15.57800781 105.37572266 -15.84742188 106.20652344 -16.125 107.0625 C-16.40214844 107.92810547 -16.67929688 108.79371094 -16.96484375 109.68554688 C-17.63968111 111.79150483 -18.31933107 113.89591964 -19 116 C-24.94 116 -30.88 116 -37 116 C-35.8749995 108.12499652 -35.8749995 108.12499652 -34.64712524 104.4223938 C-34.37241898 103.58436218 -34.09771271 102.74633057 -33.81468201 101.88290405 C-33.51441605 100.98713654 -33.21415009 100.09136902 -32.90478516 99.16845703 C-32.58759018 98.20653442 -32.2703952 97.24461182 -31.94358826 96.25354004 C-30.89767942 93.08641376 -29.8434282 89.92213241 -28.7890625 86.7578125 C-28.05729721 84.54752297 -27.32605304 82.33706084 -26.5953064 80.12643433 C-24.67165086 74.31179431 -22.74089496 68.49953613 -20.80865479 62.68774414 C-18.84989034 56.79195711 -16.89790192 50.89392809 -14.9453125 44.99609375 C-9.9766387 29.99303366 -4.99779508 14.99338524 0 0 Z " fill="#FEFBFB" transform="translate(1126,251)"/>
<path d="M0 0 C1.084021 0.00523682 2.16804199 0.01047363 3.28491211 0.01586914 C4.45473633 0.0190918 5.62456055 0.02231445 6.82983398 0.02563477 C8.0615332 0.03401367 9.29323242 0.04239258 10.56225586 0.05102539 C12.41560547 0.05779297 12.41560547 0.05779297 14.30639648 0.06469727 C17.37089703 0.07652931 20.43530307 0.09301366 23.49975586 0.11352539 C32.04369513 24.87803187 40.41422549 49.70080442 48.72119141 74.5456543 C49.82514356 77.84711113 50.93121385 81.14784674 52.0390625 84.44799805 C53.36288105 88.39208032 54.68218237 92.33764539 55.99806595 96.28438187 C56.49098101 97.76044259 56.98542618 99.2359933 57.48145676 100.71100998 C58.16478601 102.74403133 58.84249451 104.77884186 59.51879883 106.81420898 C60.09499466 108.53732803 60.09499466 108.53732803 60.68283081 110.29525757 C61.49975586 113.11352539 61.49975586 113.11352539 61.49975586 116.11352539 C54.23975586 116.11352539 46.97975586 116.11352539 39.49975586 116.11352539 C37.1006557 110.11577499 34.7897196 104.27702807 32.74975586 98.17602539 C32.52932617 97.53084961 32.30889648 96.88567383 32.08178711 96.22094727 C31.13550437 93.38503781 30.49975586 91.12574371 30.49975586 88.11352539 C15.97975586 88.44352539 1.45975586 88.77352539 -13.50024414 89.11352539 C-16.47024414 98.02352539 -19.44024414 106.93352539 -22.50024414 116.11352539 C-28.44024414 116.11352539 -34.38024414 116.11352539 -40.50024414 116.11352539 C-39.37522287 108.23837649 -39.37522287 108.23837649 -38.02001953 104.17837524 C-37.71718048 103.26146912 -37.41434143 102.34456299 -37.10232544 101.39987183 C-36.77086517 100.41673004 -36.43940491 99.43358826 -36.09790039 98.4206543 C-35.74823212 97.36785278 -35.39856384 96.31505127 -35.03829956 95.23034668 C-33.88562839 91.76494729 -32.72436754 88.30249569 -31.56274414 84.84008789 C-30.75900243 82.43124747 -29.95570458 80.02225891 -29.15283203 77.61312866 C-27.47189316 72.57343628 -25.78708384 67.53506322 -24.09887695 62.49780273 C-22.14566596 56.66970775 -20.19878785 50.8395282 -18.25547504 45.0081259 C-16.38481812 39.39493625 -14.51067583 33.782916 -12.63473511 28.17148972 C-11.83657508 25.78339167 -11.03915099 23.39504753 -10.24246216 21.00645828 C-9.13219231 17.67996108 -8.01799003 14.35480852 -6.90258789 11.0300293 C-6.40539749 9.53709854 -6.40539749 9.53709854 -5.89816284 8.01400757 C-5.59532379 7.11402039 -5.29248474 6.2140332 -4.98046875 5.28677368 C-4.71721298 4.50035807 -4.45395721 3.71394245 -4.182724 2.90369606 C-3.14826964 0.19028286 -3.00950944 0.13664895 0 0 Z " fill="#FEFBFB" transform="translate(1372.500244140625,250.886474609375)"/>
<path d="M0 0 C24.42 0 48.84 0 74 0 C74 5.61 74 11.22 74 17 C56.51 17 39.02 17 21 17 C21 27.23 21 37.46 21 48 C35.19 48 49.38 48 64 48 C64 53.61 64 59.22 64 65 C49.81 65 35.62 65 21 65 C21 75.23 21 85.46 21 96 C38.82 96 56.64 96 75 96 C75 102.27 75 108.54 75 115 C50.25 115 25.5 115 0 115 C0 77.05 0 39.1 0 0 Z " fill="#FEFCFC" transform="translate(965,252)"/>
<path d="M0 0 C24.42 0 48.84 0 74 0 C74 5.61 74 11.22 74 17 C56.51 17 39.02 17 21 17 C21 27.23 21 37.46 21 48 C35.19 48 49.38 48 64 48 C64 53.61 64 59.22 64 65 C49.81 65 35.62 65 21 65 C21 75.23 21 85.46 21 96 C38.82 96 56.64 96 75 96 C75 102.27 75 108.54 75 115 C50.25 115 25.5 115 0 115 C0 77.05 0 39.1 0 0 Z " fill="#FEFCFC" transform="translate(523,252)"/>
<path d="M0 0 C0.87333984 -0.01224609 1.74667969 -0.02449219 2.64648438 -0.03710938 C14.17025704 -0.06292813 23.1828362 3.46448882 31.9375 11.0625 C39.37614227 19.01476281 44.3125 30.36313238 44.3125 41.1875 C37.97008005 42.34066726 31.74561296 42.28257063 25.3125 42.1875 C24.85810547 41.02734375 24.85810547 41.02734375 24.39453125 39.84375 C20.18446361 28.21093357 20.18446361 28.21093357 11.75 19.6875 C5.64672448 17.13103365 -1.08617857 16.79903873 -7.28125 19.1875 C-15.2917656 23.88700249 -18.04047596 31.28366717 -20.5 39.875 C-23.80016668 55.90167151 -23.43836681 74.56338816 -15.75 89.3125 C-11.3820977 95.40109109 -7.15678175 99.16901178 0.41015625 100.578125 C7.18667815 101.10399266 12.15196698 98.4187762 17.3125 94.1875 C21.758004 89.23304812 23.30917748 83.65668404 24.3125 77.1875 C39.82019231 76.94134615 39.82019231 76.94134615 44.3125 79.1875 C44.26415207 90.11413117 39.69305368 99.54412897 32.22265625 107.44140625 C23.01484088 115.85836631 13.62028185 118.71549729 1.3125 118.5625 C0.37921875 118.57410156 -0.5540625 118.58570313 -1.515625 118.59765625 C-12.65882839 118.55096685 -21.82786936 115.01439527 -29.78515625 107.1015625 C-43.4523178 91.24870845 -46.91089067 71.54243585 -45.6875 51.1875 C-44.2703734 35.02175949 -38.94790937 20.35477246 -27.0078125 8.9765625 C-18.61412044 2.50465852 -10.3364486 0.00746314 0 0 Z " fill="#FEFCFC" transform="translate(654.6875,249.8125)"/>
<path d="M0 0 C28.05 0 56.1 0 85 0 C85 6.27 85 12.54 85 19 C74.77 19 64.54 19 54 19 C54 51.01 54 83.02 54 116 C46.41 116 38.82 116 31 116 C31 83.99 31 51.98 31 19 C20.77 19 10.54 19 0 19 C0 12.73 0 6.46 0 0 Z " fill="#FEF9F9" transform="translate(1425,251)"/>
<path d="M0 0 C6.55630744 3.80112766 10.91499251 9.82929089 13.1953125 16.9765625 C13.63652227 18.69963023 14.05314492 20.42917545 14.4453125 22.1640625 C14.65027344 22.98390625 14.85523438 23.80375 15.06640625 24.6484375 C18.47964657 40.18456586 17.32200805 57.7386816 10.4453125 72.1640625 C7.22493507 77.02567912 3.38070614 80.92822619 -2.30859375 82.71484375 C-8.33941997 83.92100899 -15.90699712 84.53190902 -21.4921875 81.6015625 C-30.82686534 74.17192095 -34.68264327 64.79079433 -36.5546875 53.1640625 C-36.87095553 49.28492418 -36.93589567 45.43003175 -36.9296875 41.5390625 C-36.92807617 40.485979 -36.92646484 39.43289551 -36.92480469 38.34790039 C-36.74401224 26.77629763 -35.18848725 13.81131824 -26.62890625 5.234375 C-19.23083576 -1.50097985 -9.69246509 -3.17154056 0 0 Z " fill="#F96955" transform="translate(768.5546875,267.8359375)"/>
<path d="M0 0 C7.86029762 4.73929709 11.38194901 12.74493476 13.59765625 21.33203125 C14.89469307 27.43836231 14.79135654 33.53273352 14.75 39.75 C14.76160156 41.4825 14.76160156 41.4825 14.7734375 43.25 C14.74859674 54.25445475 13.96375072 65.10162899 7.5 74.375 C1.81382928 79.93455558 -3.94546633 82.6592596 -11.9375 82.6875 C-18.53588482 82.56847615 -22.14350938 81.45095602 -27.125 77.0625 C-36.39473586 66.57306205 -37.68308433 54.55301105 -37.625 41 C-37.62886719 40.10539062 -37.63273437 39.21078125 -37.63671875 38.2890625 C-37.61977283 26.63026746 -36.6498513 14.39110088 -29.0859375 4.87890625 C-21.37655075 -2.43171912 -9.73300909 -4.35230784 0 0 Z " fill="#F96854" transform="translate(1685.5,268.625)"/>
<path d="M0 0 C7.858125 -0.1546875 7.858125 -0.1546875 15.875 -0.3125 C17.50679199 -0.35802002 19.13858398 -0.40354004 20.81982422 -0.45043945 C30.66314383 -0.54391541 38.31522427 0.42676655 45.625 7.5625 C47.65182138 12.62955344 47.80453879 17.61466376 47 23 C44.67656537 27.66713176 41.3401567 31.754867 36.29785156 33.63452148 C32.92662649 34.1707225 29.57531249 34.12205434 26.171875 34.09765625 C25.17534912 34.09614563 25.17534912 34.09614563 24.15869141 34.09460449 C21.68910992 34.08939262 19.21955313 34.07543139 16.75 34.0625 C11.2225 34.041875 5.695 34.02125 0 34 C0 22.78 0 11.56 0 0 Z " fill="#F96955" transform="translate(1543,268)"/>
<path d="M0 0 C6.93 -0.0928125 6.93 -0.0928125 14 -0.1875 C16.16175781 -0.22846802 16.16175781 -0.22846802 18.3671875 -0.27026367 C26.77066546 -0.32465701 33.17950363 -0.15606222 39.875 5.375 C43.7295145 10.13645909 44.52684331 13.88861759 44 20 C42.30770434 25.16595518 40.3117633 28.64640632 36 32 C28.59680615 34.55618043 21.25747289 34.22669309 13.5 34.125 C9.045 34.08375 4.59 34.0425 0 34 C0 22.78 0 11.56 0 0 Z " fill="#F96854" transform="translate(1269,269)"/>
<path d="M0 0 C4.59041573 -0.06908652 9.17900877 -0.12875125 13.76953125 -0.16479492 C15.32916394 -0.17982869 16.88875472 -0.20026135 18.44824219 -0.22631836 C20.69737116 -0.26294211 22.94593847 -0.27978021 25.1953125 -0.29296875 C25.8861795 -0.30845261 26.57704651 -0.32393646 27.28884888 -0.33988953 C32.61089595 -0.34171607 36.67433875 0.87873178 40.64453125 4.5 C44.08167194 8.91425426 45.44042757 12.13478287 45.3359375 17.80859375 C44.71505656 21.85875894 42.89278348 25.13132305 40 28 C32.40758125 33.33724486 24.43554325 32.45365397 15.5 32.25 C10.385 32.1675 5.27 32.085 0 32 C0 21.44 0 10.88 0 0 Z " fill="#F96854" transform="translate(438,317)"/>
<path d="M0 0 C7.1775 -0.1546875 7.1775 -0.1546875 14.5 -0.3125 C15.99337891 -0.35802002 17.48675781 -0.40354004 19.02539062 -0.45043945 C26.63009625 -0.52969775 32.28493194 -0.36182956 38 5 C40.38547774 7.35713543 40.9148486 8.45610504 41.43359375 11.76953125 C41.44209538 18.39230335 41.31432319 22.82281217 37 28 C29.64484076 32.96294725 22.6445867 32.46843432 14 32.25 C9.38 32.1675 4.76 32.085 0 32 C0 21.44 0 10.88 0 0 Z " fill="#F96956" transform="translate(438,268)"/>
<path d="M0 0 C2.31738871 3.47608307 3.46588129 7.02381287 4.75 10.95703125 C5.0087793 11.73761398 5.26755859 12.51819672 5.53417969 13.32243347 C6.36035967 15.81774429 7.18026948 18.31506396 8 20.8125 C8.55166824 22.48255905 9.10374704 24.15248254 9.65625 25.82226562 C10.89908044 29.58062367 12.14095562 33.33927378 13.36914062 37.10244751 C13.94490128 38.83426937 14.55655138 40.55405378 15.171875 42.2722168 C16 45 16 45 16 49 C5.44 49 -5.12 49 -16 49 C-14.15141989 42.22187294 -12.28711377 35.53557747 -10.1171875 28.8671875 C-9.72758347 27.66221115 -9.72758347 27.66221115 -9.33010864 26.43289185 C-8.7885656 24.7605125 -8.24574369 23.08854675 -7.70166016 21.41699219 C-6.8659094 18.84704628 -6.0362699 16.27517858 -5.20703125 13.703125 C-4.6774458 12.0701949 -4.14751104 10.43737804 -3.6171875 8.8046875 C-3.3692746 8.03502655 -3.12136169 7.2653656 -2.86593628 6.47238159 C-1.11481794 1.11481794 -1.11481794 1.11481794 0 0 Z " fill="#F96A57" transform="translate(1137,273)"/>
<path d="M0 0 C2.10584159 2.10584159 2.52789271 3.12684534 3.40454102 5.89550781 C3.66143204 6.69684143 3.91832306 7.49817505 4.18299866 8.3237915 C4.45389816 9.19147156 4.72479767 10.05915161 5.00390625 10.953125 C5.28725327 11.84610291 5.57060028 12.73908081 5.86253357 13.65911865 C6.46138062 15.55126607 7.05716965 17.44438362 7.65014648 19.33837891 C8.55522947 22.22679733 9.47114929 25.11160594 10.38867188 27.99609375 C10.96940194 29.83573183 11.54950053 31.67556939 12.12890625 33.515625 C12.40182999 34.37520813 12.67475372 35.23479126 12.95594788 36.12042236 C13.20968674 36.93436462 13.4634256 37.74830688 13.72485352 38.58691406 C13.9475441 39.29591858 14.17023468 40.0049231 14.39967346 40.7354126 C15.11869823 43.4477605 15.53869082 46.23214494 16 49 C5.77 49 -4.46 49 -15 49 C-13.87488211 39.99905685 -13.87488211 39.99905685 -12.70898438 36.43579102 C-12.45201782 35.63879288 -12.19505127 34.84179474 -11.93029785 34.02064514 C-11.65423706 33.19012131 -11.37817627 32.35959747 -11.09375 31.50390625 C-10.80898804 30.62975571 -10.52422607 29.75560516 -10.23083496 28.85496521 C-9.63240663 27.02271402 -9.03050695 25.19159328 -8.42529297 23.36157227 C-7.4955245 20.54896132 -6.57699655 17.73286427 -5.66015625 14.91601562 C-5.07616896 13.13260014 -4.49155606 11.34938936 -3.90625 9.56640625 C-3.63018921 8.7217128 -3.35412842 7.87701935 -3.06970215 7.00672913 C-1.11651729 1.11651729 -1.11651729 1.11651729 0 0 Z " fill="#F96A56" transform="translate(1380,273)"/>
</svg>
